<svg xmlns="http://www.w3.org/2000/svg" width="65" height="81" viewBox="0 0 65 81"><defs><style>.a,.e{fill:none;}.a,.b{stroke:#fff;stroke-width:3px;}.b{fill:#16202c;}.c{fill:#fff;}.d{stroke:none;}</style></defs><g transform="translate(-155 -1048)"><g class="a" transform="translate(174 1055)"><rect class="d" width="27" height="51" rx="8"/><rect class="e" x="1.5" y="1.5" width="24" height="48" rx="6.5"/></g><g class="a" transform="translate(166 1048)"><rect class="d" width="43" height="58" rx="8"/><rect class="e" x="1.5" y="1.5" width="40" height="55" rx="6.5"/></g><g class="b" transform="translate(155 1064)"><circle class="d" cx="32.5" cy="32.5" r="32.5"/><circle class="e" cx="32.5" cy="32.5" r="31"/></g><g class="a" transform="translate(173 1073)"><circle class="d" cx="15" cy="15" r="15"/><circle class="e" cx="15" cy="15" r="13.5"/></g><path class="a" d="M3305.229,1119.847c15.651-5.091,17.949-13.751,17.949-13.751a22.912,22.912,0,0,0,1.942-9.745" transform="translate(-3114)"/><rect class="c" width="3" height="2" transform="translate(209.081 1092.103) rotate(-3)"/></g></svg>