<svg xmlns="http://www.w3.org/2000/svg" width="166" height="54" viewBox="0 0 166 54"><defs><style>.a,.c{fill:none;}.a{stroke:#fff;stroke-width:3px;}.b{stroke:none;}</style></defs><g transform="translate(-105 -656)"><g transform="translate(-13 -227)"><g transform="translate(21 419)"><g class="a" transform="translate(244 511) rotate(-90)"><rect class="b" width="40" height="11"/><rect class="c" x="1.5" y="1.5" width="37" height="8"/></g><g class="a" transform="translate(252 505) rotate(-90)"><rect class="b" width="28" height="11"/><rect class="c" x="1.5" y="1.5" width="25" height="8"/></g><g class="a" transform="translate(236 518) rotate(-90)"><rect class="b" width="54" height="11"/><rect class="c" x="1.5" y="1.5" width="51" height="8"/></g></g></g><g transform="translate(105 656)"><g class="a" transform="translate(8 47) rotate(-90)"><rect class="b" width="40" height="11"/><rect class="c" x="1.5" y="1.5" width="37" height="8"/></g><g class="a" transform="translate(0 41) rotate(-90)"><rect class="b" width="28" height="11"/><rect class="c" x="1.5" y="1.5" width="25" height="8"/></g><g class="a" transform="translate(16 54) rotate(-90)"><rect class="b" width="54" height="11"/><rect class="c" x="1.5" y="1.5" width="51" height="8"/></g></g><line class="a" x2="44" transform="translate(131.5 683.5)"/><g transform="translate(-14)"><line class="a" x2="7" y2="7" transform="translate(188.5 683.5)"/><line class="a" x2="9" y2="9" transform="translate(200.5 681.5)"/><line class="a" x1="9" y2="9" transform="translate(193.5 681.5)"/><line class="a" x1="7" y2="7" transform="translate(207.5 683.5)"/></g><line class="a" x2="45" transform="translate(199.5 683.5)"/></g></svg>