<svg xmlns="http://www.w3.org/2000/svg" width="176" height="133" viewBox="0 0 176 133"><defs><style>.a,.c{fill:none;}.a{stroke:#fff;stroke-width:3px;}.b{stroke:none;}</style></defs><g transform="translate(-100 -460)"><g class="a" transform="translate(100 575)"><rect class="b" width="176" height="18"/><rect class="c" x="1.5" y="1.5" width="173" height="15"/></g><g class="a" transform="translate(179 576) rotate(-90)"><rect class="b" width="26" height="17"/><rect class="c" x="1.5" y="1.5" width="23" height="14"/></g><g class="a" transform="translate(155 530)"><rect class="b" width="66" height="23"/><rect class="c" x="1.5" y="1.5" width="63" height="20"/></g><g class="a" transform="translate(205 533) rotate(-90)"><rect class="b" width="73" height="12"/><rect class="c" x="1.5" y="1.5" width="70" height="9"/></g><g class="a" transform="translate(159 533) rotate(-90)"><rect class="b" width="73" height="12"/><rect class="c" x="1.5" y="1.5" width="70" height="9"/></g><g class="a" transform="translate(244 511) rotate(-90)"><rect class="b" width="40" height="11"/><rect class="c" x="1.5" y="1.5" width="37" height="8"/></g><g class="a" transform="translate(254 505) rotate(-90)"><rect class="b" width="28" height="11"/><rect class="c" x="1.5" y="1.5" width="25" height="8"/></g><g transform="translate(111 471)"><g class="a" transform="translate(10 40) rotate(-90)"><rect class="b" width="40" height="11"/><rect class="c" x="1.5" y="1.5" width="37" height="8"/></g><g class="a" transform="translate(0 34) rotate(-90)"><rect class="b" width="28" height="11"/><rect class="c" x="1.5" y="1.5" width="25" height="8"/></g></g><line class="a" x2="112" transform="translate(131.5 491.5)"/></g></svg>