<svg xmlns="http://www.w3.org/2000/svg" width="163.176" height="221.256" viewBox="0 0 163.176 221.256"><defs><style>.a,.e{fill:none;}.a{stroke:#fff;stroke-width:3px;}.b{fill:#fff;}.c{fill:#16202c;}.d{stroke:none;}</style></defs><g transform="translate(-87 -1122.495)"><g class="a" transform="translate(87 1172)"><circle class="d" cx="80" cy="80" r="80"/><circle class="e" cx="80" cy="80" r="78.5"/></g><g class="a" transform="translate(112 1197)"><circle class="d" cx="55" cy="55" r="55"/><circle class="e" cx="55" cy="55" r="53.5"/></g><path class="a" d="M3305.229,1119.847c11.059,1.627,20.4-9.581,20.4-9.581a34.853,34.853,0,0,0,7.909-16.434" transform="translate(-3134 168)"/><circle class="b" cx="1.5" cy="1.5" r="1.5" transform="translate(166 1286)"/><g transform="translate(248.039 -238.044) rotate(13)"><rect class="c" width="25.969" height="116" transform="translate(203.708 1435.198)"/><rect class="c" width="47.969" height="101" transform="translate(192 1352)"/><g transform="translate(196.485 1364)"><line class="a" y2="54" transform="translate(35.5 1.5)"/><line class="a" x1="12" transform="translate(12.5 182.5)"/><line class="a" y2="112" transform="translate(23.5 71.5)"/><line class="a" x2="36" transform="translate(0.5 54.5)"/><path class="a" d="M3271.065,1230.51c-14.439-13.738-12.311-17.588-12.311-17.588" transform="translate(-3257.144 -1157.974)"/><path class="a" d="M3258.644,1230.732c14.461-13.911,12.33-17.809,12.33-17.809" transform="translate(-3235.584 -1158.195)"/><line class="a" y2="112" transform="translate(13.5 71.5)"/><line class="a" y2="54" transform="translate(1.5 1.5)"/><line class="a" y2="54" transform="translate(24.5 1.5)"/><line class="a" y2="54" transform="translate(12.5 1.5)"/><circle class="b" cx="1.5" cy="1.5" r="1.5" transform="translate(34)"/><circle class="b" cx="1.5" cy="1.5" r="1.5" transform="translate(23)"/><circle class="b" cx="1.5" cy="1.5" r="1.5" transform="translate(11)"/><circle class="b" cx="1.5" cy="1.5" r="1.5"/><circle class="b" cx="0.5" cy="0.5" r="0.5" transform="translate(24 183)"/><circle class="b" cx="0.5" cy="0.5" r="0.5" transform="translate(12 183)"/></g></g><g transform="translate(-307.107 39.545) rotate(-11)"><path class="c" d="M0,0H35.158V145.308H0Z" transform="matrix(0.996, 0.087, -0.087, 0.996, 268.399, 1165.744)"/><path class="c" d="M0,0H27.2V108.7H0Z" transform="translate(271.984 1272.779)"/><g transform="translate(267.079 1178.5)"><line class="a" y2="184" transform="translate(23.5)"/><line class="a" y2="62.324" transform="translate(12.5 121.676)"/><line class="a" x2="11" y2="10" transform="translate(1.5 112)"/><path class="a" d="M3333.2,1161.5c-28.335,5.185-20.774,110.529-20.774,110.529" transform="translate(-3310.919 -1160.029)"/><circle class="b" cx="1.5" cy="1.5" r="1.5" transform="translate(11 120.5)"/><circle class="b" cx="1.5" cy="1.5" r="1.5" transform="translate(11 182.5)"/><circle class="b" cx="1.5" cy="1.5" r="1.5" transform="translate(22 182.5)"/><circle class="b" cx="1.5" cy="1.5" r="1.5" transform="translate(0 110.5)"/><line class="a" x2="11" transform="translate(12.5 184)"/></g></g></g></svg>